<svg width="48" height="49" viewBox="0 0 48 49" fill="none" xmlns="http://www.w3.org/2000/svg">
<path fill-rule="evenodd" clip-rule="evenodd" d="M0 11.7C0 10.427 0.505713 9.20609 1.40589 8.30591C2.30606 7.40574 3.52696 6.90002 4.8 6.90002H43.2C44.473 6.90002 45.6939 7.40574 46.5941 8.30591C47.4943 9.20609 48 10.427 48 11.7V37.3C48 38.5731 47.4943 39.794 46.5941 40.6941C45.6939 41.5943 44.473 42.1 43.2 42.1H4.8C3.52696 42.1 2.30606 41.5943 1.40589 40.6941C0.505713 39.794 0 38.5731 0 37.3L0 11.7ZM9.6 19.7C9.6 18.0026 10.2743 16.3748 11.4745 15.1745C12.6747 13.9743 14.3026 13.3 16 13.3C17.6974 13.3 19.3253 13.9743 20.5255 15.1745C21.7257 16.3748 22.4 18.0026 22.4 19.7C22.4 21.3974 21.7257 23.0253 20.5255 24.2255C19.3253 25.4257 17.6974 26.1 16 26.1C14.3026 26.1 12.6747 25.4257 11.4745 24.2255C10.2743 23.0253 9.6 21.3974 9.6 19.7ZM38.4 19.7H28.8V16.5H38.4V19.7ZM38.4 29.3H28.8V26.1H38.4V29.3ZM16 29.3C14.2605 29.3 12.5554 29.7844 11.0758 30.6989C9.5961 31.6134 8.40031 32.9218 7.6224 34.4776L6.5664 36.5832C6.44404 36.8274 6.38623 37.0988 6.39846 37.3717C6.41069 37.6445 6.49256 37.9097 6.63627 38.1419C6.77998 38.3742 6.98075 38.5658 7.21946 38.6985C7.45818 38.8312 7.72688 38.9006 8 38.9H24C24.2728 38.9 24.5412 38.8302 24.7794 38.6973C25.0177 38.5644 25.218 38.3727 25.3614 38.1406C25.5047 37.9084 25.5863 37.6435 25.5984 37.3709C25.6105 37.0983 25.5526 36.8272 25.4304 36.5832L24.3776 34.4776C23.5997 32.9218 22.4039 31.6134 20.9242 30.6989C19.4446 29.7844 17.7395 29.3 16 29.3Z" fill="white"/>
</svg>
