<svg width="23" height="22" viewBox="0 0 23 22" fill="none" xmlns="http://www.w3.org/2000/svg">
<path fill-rule="evenodd" clip-rule="evenodd" d="M16.2392 13.155C15.9696 13.0202 14.6478 12.3706 14.4017 12.2801C14.1556 12.1905 13.9765 12.1462 13.7964 12.4158C13.6173 12.6836 13.1025 13.2898 12.946 13.4689C12.7886 13.649 12.632 13.6707 12.3633 13.5368C12.0946 13.4011 11.2279 13.1179 10.201 12.2023C9.40214 11.4894 8.86201 10.6091 8.70549 10.3394C8.54897 10.0707 8.6883 9.92508 8.82311 9.79118C8.94434 9.67085 9.09181 9.47724 9.22662 9.32072C9.36142 9.16329 9.40576 9.05111 9.49533 8.87107C9.5858 8.69193 9.54056 8.53541 9.47271 8.40061C9.40576 8.2658 8.86835 6.94217 8.64397 6.40386C8.42593 5.88002 8.20427 5.95149 8.03961 5.94244C7.88219 5.93521 7.70305 5.9334 7.52391 5.9334C7.34477 5.9334 7.05345 6.00035 6.80736 6.26996C6.56037 6.53866 5.86644 7.18917 5.86644 8.51279C5.86644 9.83551 6.82908 11.1139 6.96388 11.2939C7.09869 11.4731 8.8593 14.1891 11.5563 15.3535C12.1987 15.6303 12.699 15.7959 13.0889 15.9189C13.7331 16.1243 14.3194 16.0954 14.7826 16.0257C15.2983 15.9488 16.3731 15.3752 16.5975 14.7473C16.821 14.1194 16.821 13.5811 16.754 13.4689C16.687 13.3567 16.5079 13.2898 16.2383 13.155H16.2392ZM11.3337 19.8527H11.3301C9.72823 19.853 8.15575 19.4224 6.77751 18.606L6.4518 18.4124L3.06629 19.3008L3.97012 16.0004L3.75751 15.662C2.86195 14.2364 2.38801 12.5866 2.39045 10.9031C2.39226 5.9723 6.40385 1.96071 11.3374 1.96071C13.7259 1.96071 15.9714 2.89259 17.6596 4.58263C18.4923 5.41189 19.1523 6.39804 19.6014 7.48402C20.0506 8.57 20.2799 9.73425 20.2761 10.9094C20.2743 15.8402 16.2627 19.8527 11.3337 19.8527ZM18.9444 3.29881C17.9475 2.29539 16.7614 1.49978 15.4549 0.958088C14.1483 0.416391 12.7472 0.139378 11.3328 0.143103C5.40322 0.143103 0.575559 4.96986 0.57375 10.9022C0.572845 12.7985 1.06773 14.6496 2.00956 16.2808L0.483276 21.8567L6.18672 20.3603C7.76446 21.2199 9.5325 21.6703 11.3292 21.6703H11.3337C17.2634 21.6703 22.091 16.8436 22.0928 10.9103C22.0972 9.49649 21.8212 8.0958 21.2808 6.7893C20.7403 5.48281 19.9462 4.29644 18.9444 3.29881Z" fill="#959595"/>
</svg>
