<svg width="30" height="18" viewBox="0 0 30 18" fill="none" xmlns="http://www.w3.org/2000/svg">
<path d="M19.451 1.19067H26.6874V2.92648H19.451V1.19067ZM12.2001 8.05858C13.7997 7.30185 14.6376 6.15063 14.6376 4.37179C14.6376 0.853556 11.9897 0 8.93192 0H0.516663V17.6593H9.1677C12.4105 17.6593 15.4537 16.1172 15.4537 12.5308C15.4537 10.3144 14.3946 8.67543 12.2001 8.05858ZM4.44137 3.01255H8.12304C9.5413 3.01255 10.8145 3.40347 10.8145 5.03168C10.8145 6.53078 9.82423 7.13329 8.42048 7.13329H4.44137V3.01255ZM8.63086 14.6611H4.43774V9.79797H8.71429C10.4409 9.79797 11.5327 10.5117 11.5327 12.3192C11.5327 14.098 10.2305 14.6611 8.63086 14.6611ZM29.5167 11.4513C29.5167 7.66766 27.2786 4.51524 23.2306 4.51524C19.295 4.51524 16.6181 7.44531 16.6181 11.2863C16.6181 15.2672 19.1536 18 23.2306 18C26.3174 18 28.316 16.6264 29.2773 13.6964H26.1469C25.806 14.7902 24.4204 15.364 23.3431 15.364C21.261 15.364 20.1728 14.159 20.1728 12.1112H29.4913C29.5022 11.8996 29.5167 11.6772 29.5167 11.4513ZM20.1728 9.8948C20.2853 8.21279 21.4206 7.16198 23.1182 7.16198C24.9028 7.16198 25.7951 8.19845 25.9511 9.8948H20.1728Z" fill="#959595"/>
</svg>
