<svg width="28" height="22" viewBox="0 0 28 22" fill="none" xmlns="http://www.w3.org/2000/svg">
<path d="M27.5167 2.7187C26.5344 3.15395 25.4792 3.44804 24.3699 3.58096C25.5145 2.89608 26.3708 1.81817 26.7791 0.54834C25.7037 1.18708 24.5268 1.63669 23.2995 1.87761C22.4741 0.996369 21.3809 0.412267 20.1896 0.215991C18.9982 0.0197149 17.7754 0.222246 16.711 0.792141C15.6466 1.36204 14.8001 2.26741 14.3029 3.3677C13.8058 4.46798 13.6858 5.70162 13.9616 6.87709C11.7826 6.76768 9.65104 6.20133 7.70512 5.2148C5.7592 4.22826 4.04246 2.84358 2.66632 1.15063C2.19578 1.96231 1.92522 2.90339 1.92522 3.90563C1.9247 4.80789 2.14689 5.69632 2.57207 6.49211C2.99726 7.28789 3.6123 7.96643 4.36262 8.46751C3.49244 8.43982 2.64147 8.20469 1.88052 7.7817V7.85228C1.88044 9.11772 2.31816 10.3442 3.11943 11.3237C3.9207 12.3031 5.03616 12.9752 6.27653 13.2258C5.46931 13.4443 4.62299 13.4765 3.8015 13.3199C4.15146 14.4088 4.83315 15.3609 5.75114 16.0431C6.66913 16.7253 7.77746 17.1033 8.92096 17.1243C6.97979 18.6481 4.58246 19.4747 2.11462 19.4711C1.67746 19.4712 1.24068 19.4457 0.806519 19.3946C3.31152 21.0052 6.22753 21.86 9.20564 21.8567C19.2869 21.8567 24.7981 13.507 24.7981 6.26539C24.7981 6.03012 24.7922 5.7925 24.7817 5.55723C25.8537 4.78198 26.779 3.82199 27.5143 2.72223L27.5167 2.7187Z" fill="#959595"/>
</svg>
