<svg width="22" height="22" viewBox="0 0 22 22" fill="none" xmlns="http://www.w3.org/2000/svg">
<path fill-rule="evenodd" clip-rule="evenodd" d="M10.9497 0.143066C4.95583 0.143066 0.0928802 5.00602 0.0928802 10.9999C0.0928802 16.9938 4.95583 21.8567 10.9497 21.8567C16.9318 21.8567 21.8065 16.9938 21.8065 10.9999C21.8065 5.00602 16.9318 0.143066 10.9497 0.143066ZM18.1206 5.14715C19.4573 6.77508 20.197 8.81124 20.2169 10.9176C19.9111 10.8587 16.8495 10.2345 13.7643 10.6235C13.6929 10.4697 13.634 10.305 13.5635 10.1404C13.3716 9.68748 13.1677 9.23978 12.9519 8.79776C16.3663 7.40809 17.9207 5.40681 18.1206 5.14715ZM10.9497 1.74535C13.3047 1.74535 15.4598 2.62747 17.0965 4.07595C16.9318 4.31118 15.5304 6.18398 12.2335 7.41985C10.7136 4.62965 9.03076 2.34429 8.7711 1.99144C9.48522 1.82469 10.2164 1.7418 10.9497 1.74445V1.74535ZM7.00505 2.61571C7.25205 2.94594 8.90047 5.24215 10.443 7.97355C6.10937 9.12799 2.28234 9.10446 1.87068 9.10446C2.47143 6.23103 4.4148 3.84072 7.00505 2.61571ZM1.67074 11.0116V10.7294C2.07154 10.7411 6.56897 10.7999 11.1976 9.41027C11.4681 9.92868 11.7151 10.4579 11.9503 10.9881C11.8327 11.0234 11.7033 11.0587 11.5857 11.094C6.80511 12.6365 4.26099 16.8517 4.04929 17.2055C2.51794 15.5059 1.67056 13.2993 1.67074 11.0116ZM10.9497 20.2788C8.80638 20.2788 6.82863 19.5487 5.26254 18.3246C5.4272 17.9826 7.31085 14.3555 12.5393 12.5307C12.5628 12.5189 12.5755 12.5189 12.5981 12.5072C13.9055 15.8864 14.4347 18.7245 14.5768 19.537C13.4576 20.0201 12.2335 20.2788 10.9497 20.2788ZM16.1194 18.6892C16.0253 18.1238 15.5304 15.4159 14.3171 12.0829C17.2258 11.6242 19.7691 12.3778 20.0875 12.4837C19.6867 15.0621 18.203 17.2878 16.1194 18.6892Z" fill="#959595"/>
</svg>
